<svg xmlns="http://www.w3.org/2000/svg" xmlns:xlink="http://www.w3.org/1999/xlink" version="1.1" viewBox="0 0 2350 1411" style="background: #111111"><defs><style>@import url(https://fonts.googleapis.com/css?family=Open+Sans:400,700);</style></defs><defs joint-selector="defs"></defs><g joint-selector="layers"  transform="matrix(1,0,0,1,0,0)"><g ></g><g ><!--z-index:1--><!--z-index:2--><!--z-index:3--><!--z-index:4--><!--z-index:5--><!--z-index:6--><!--z-index:7--><!--z-index:8--><!--z-index:9--><!--z-index:10--><!--z-index:11--><!--z-index:12--><!--z-index:13--><!--z-index:14--><!--z-index:15--><g   id="j_58"  transform="translate(20,1374.6)"><g id="v-818"><text  id="v-819" font-size="22px" xml:space="preserve" y="0.8em" font-weight="normal" text-anchor="start" fill="#777777" pointer-events="none" display="block" font-family="Open Sans"><tspan dy="0" >Friday, February 28, 2025 at 4:58 AM Brasilia Standard Time</tspan></text></g></g><!--z-index:16--><g   id="j_57"  transform="translate(20,1331.3999999999999)"><g id="v-816"><text  id="v-817" font-size="36px" xml:space="preserve" y="0.8em" font-weight="normal" text-anchor="start" fill="#bbbbbb" pointer-events="none" display="block" font-family="Open Sans"><tspan dy="0" >[Component] Cripto Dashboard - Usuario REST API</tspan></text></g></g><!--z-index:17--><g   id="j_59"  transform="translate(200,485)" style=""><g  id="v-826" style="opacity: 1;"><rect  id="v-827" rx="1" ry="1" stroke="#1d3a49" stroke-width="2" pointer-events="visiblePainted" fill="#204051" width="450" height="300" style="fill: rgb(32, 64, 81); stroke: rgb(29, 58, 73);"></rect><text  id="v-828" font-size="34" xml:space="preserve" y="0.8em" font-weight="bold" text-anchor="middle" pointer-events="visible" font-family="Open Sans" fill="#ffffff" transform="matrix(1,0,0,1,225,59.3)" style="fill: rgb(255, 255, 255);"><tspan dy="0" >Usuario API Gateway</tspan></text><text  id="v-829" font-size="17" xml:space="preserve" y="0.8em" text-anchor="middle" font-family="Open Sans" fill="#ffffff" transform="matrix(1,0,0,1,225,100.1)" style="fill: rgb(255, 255, 255);"><tspan dy="0" >[Container: APISIX]</tspan></text><text  id="v-830" font-size="24" xml:space="preserve" y="0.8em" text-anchor="middle" font-family="Open Sans" fill="#ffffff" transform="matrix(1,0,0,1,225,130.5)" style="fill: rgb(255, 255, 255);"><tspan dy="0" >Aplicação para evitar que o usuario</tspan><tspan dy="1.2em" x="0" >se conecte diretamente com a</tspan><tspan dy="1.2em" x="0" >aplicação de login enquanto realizar</tspan><tspan dy="1.2em" x="0" >load balance</tspan></text><g  id="v-831" color="#ffffff" transform="matrix(1,0,0,1,222.5,268)" style="fill: rgb(255, 255, 255);" display="none"><g ></g><g ></g><g ></g><g ></g></g><image  id="v-832"></image></g></g><!--z-index:18--><g   id="j_61"  transform="translate(930,165)" style=""><g id="v-843"><rect  id="v-844" width="490" height="1011" rx="0" ry="0" fill="#111111" stroke="#2d75a6" stroke-width="1" stroke-dasharray="20,20" pointer-events="none"></rect><text  id="v-845" font-size="24px" xml:space="preserve" y="972" font-weight="normal" fill="#2d75a6" text-anchor="start" pointer-events="visible" font-family="Open Sans" transform="matrix(1,0,0,1,15,0)"><tspan dy="0" >Usuario REST API</tspan></text><text  id="v-846" font-size="17px" xml:space="preserve" y="996" font-weight="normal" fill="#2d75a6" text-anchor="start" pointer-events="visible" font-family="Open Sans" transform="matrix(1,0,0,1,15,0)"><tspan dy="0" >[Container]</tspan></text><image  id="v-847" pointer-events="visible"></image></g></g><!--z-index:19--><g   id="j_60"  transform="translate(950,785)" style=""><g  id="v-836" style="opacity: 1;"><rect  id="v-837" rx="1" ry="1" stroke="#17171a" stroke-width="2" pointer-events="visiblePainted" fill="#1a1a1d" width="450" height="300" style="fill: rgb(26, 26, 29); stroke: rgb(23, 23, 26);"></rect><text  id="v-838" font-size="34" xml:space="preserve" y="0.8em" font-weight="bold" text-anchor="middle" pointer-events="visible" font-family="Open Sans" fill="#ffffff" transform="matrix(1,0,0,1,225,102.5)" style="fill: rgb(255, 255, 255);"><tspan dy="0" >ENDPOINT POST Login</tspan></text><text  id="v-839" font-size="17" xml:space="preserve" y="0.8em" text-anchor="middle" font-family="Open Sans" fill="#ffffff" transform="matrix(1,0,0,1,225,143.3)" style="fill: rgb(255, 255, 255);"><tspan dy="0" >[Component]</tspan></text><text  id="v-840" font-size="24" xml:space="preserve" y="0.8em" text-anchor="middle" font-family="Open Sans" fill="#ffffff" transform="matrix(1,0,0,1,225,173.7)" style="fill: rgb(255, 255, 255);"><tspan dy="0" >Fazer login no sistema</tspan></text><g  id="v-841" color="#ffffff" transform="matrix(1,0,0,1,222.5,268)" style="fill: rgb(255, 255, 255);" display="none"><g ></g><g ></g><g ></g><g ></g></g><image  id="v-842"></image></g></g><!--z-index:20--><g   id="j_62"  transform="translate(950,185)" style=""><g  id="v-851" style="opacity: 1;"><rect  id="v-852" rx="1" ry="1" stroke="#17171a" stroke-width="2" pointer-events="visiblePainted" fill="#1a1a1d" width="450" height="300" style="fill: rgb(26, 26, 29); stroke: rgb(23, 23, 26);"></rect><text  id="v-853" font-size="34" xml:space="preserve" y="0.8em" font-weight="bold" text-anchor="middle" pointer-events="visible" font-family="Open Sans" fill="#ffffff" transform="matrix(1,0,0,1,225,82.1)" style="fill: rgb(255, 255, 255);"><tspan dy="0" >ENDPOINT POST Create</tspan><tspan dy="1.2em" x="0" >User</tspan></text><text  id="v-854" font-size="17" xml:space="preserve" y="0.8em" text-anchor="middle" font-family="Open Sans" fill="#ffffff" transform="matrix(1,0,0,1,225,163.7)" style="fill: rgb(255, 255, 255);"><tspan dy="0" >[Component]</tspan></text><text  id="v-855" font-size="24" xml:space="preserve" y="0.8em" text-anchor="middle" font-family="Open Sans" fill="#ffffff" transform="matrix(1,0,0,1,225,194.1)" style="fill: rgb(255, 255, 255);"><tspan dy="0" >Criar login de usuario</tspan></text><g  id="v-856" color="#ffffff" transform="matrix(1,0,0,1,222.5,268)" style="fill: rgb(255, 255, 255);" display="none"><g ></g><g ></g><g ></g><g ></g></g><image  id="v-857"></image></g></g><!--z-index:21--><g   id="j_63"  transform="translate(1700,185)" style=""><g  id="v-861" style="opacity: 1;"><path  d="M 0,30 a 225,30 0,0,0 450 0 a 225,30 0,0,0 -450 0 l 0,240 a 225,30 0,0,0 450 0 l 0,-240" id="v-862" stroke="#0e4469" stroke-width="2" pointer-events="visiblePainted" fill="#0f4c75" style="fill: rgb(15, 76, 117); stroke: rgb(14, 68, 105);"></path><rect  id="v-863" stroke-width="0" pointer-events="visiblePainted" fill="none" stroke="none" width="450" height="270" x="0" y="30"></rect><text  id="v-864" font-size="34" xml:space="preserve" y="0.8em" font-weight="bold" text-anchor="middle" pointer-events="visible" font-family="Open Sans" fill="#ffffff" transform="matrix(1,0,0,1,225,125)" style="fill: rgb(255, 255, 255);"><tspan dy="0" >User Database</tspan></text><text  id="v-865" font-size="17" xml:space="preserve" y="0.8em" text-anchor="middle" font-family="Open Sans" fill="#ffffff" transform="matrix(1,0,0,1,225,165.8)" style="fill: rgb(255, 255, 255);"><tspan dy="0" >[Container: MySQL]</tspan></text><text  id="v-866" font-size="24" xml:space="preserve" y="0.8em" text-anchor="middle" font-family="Open Sans" fill="#ffffff" transform="matrix(1,0,0,1,225,196.2)" style="fill: rgb(255, 255, 255);"><tspan dy="0" >Armazena os dados dos usuários</tspan></text><g  id="v-867" font-weight="normal" text-anchor="middle" color="#ffffff" transform="matrix(1,0,0,1,222.5,268)" style="fill: rgb(255, 255, 255);" display="none"><g ></g><g ></g><g ></g><g ></g></g><image  id="v-868"></image></g></g><!--z-index:22--><g   id="j_64"  transform="translate(1700,785)" style=""><g  id="v-875" style="opacity: 1;"><rect  id="v-876" rx="1" ry="1" stroke="#355f6c" stroke-width="2" pointer-events="visiblePainted" fill="#3b6978" width="450" height="300" style="fill: rgb(59, 105, 120); stroke: rgb(53, 95, 108);"></rect><text  id="v-877" font-size="34" xml:space="preserve" y="0.8em" font-weight="bold" text-anchor="middle" pointer-events="visible" font-family="Open Sans" fill="#ffffff" transform="matrix(1,0,0,1,225,88.1)" style="fill: rgb(255, 255, 255);"><tspan dy="0" >SSO Partner System</tspan></text><text  id="v-878" font-size="17" xml:space="preserve" y="0.8em" text-anchor="middle" font-family="Open Sans" fill="#ffffff" transform="matrix(1,0,0,1,225,128.9)" style="fill: rgb(255, 255, 255);"><tspan dy="0" >[Software System]</tspan></text><text  id="v-879" font-size="24" xml:space="preserve" y="0.8em" text-anchor="middle" font-family="Open Sans" fill="#ffffff" transform="matrix(1,0,0,1,225,159.3)" style="fill: rgb(255, 255, 255);"><tspan dy="0" >Aplicação de 3º para realizar login</tspan><tspan dy="1.2em" x="0" >usando SSO</tspan></text><g  id="v-880" color="#ffffff" transform="matrix(1,0,0,1,222.5,268)" style="fill: rgb(255, 255, 255);" display="none"><g ></g><g ></g><g ></g><g ></g></g><image  id="v-881"></image></g></g><!--z-index:23--><g   id="j_65" ><path  stroke="#aaaaaa" d="M 1400 935 L 1700 935" id="v-894" stroke-width="2" stroke-dasharray="30 30" fill="none" style="opacity: 1;"></path><path  fill="black" stroke="black" d="M 0 0 0 0" transform="matrix(0.9999999999999999,0,0,0.9999999999999999,1400,935)"></path><path  fill="#aaaaaa" stroke="#aaaaaa" d="M 20 0 L 0 10 L 20 20 z" id="v-896" transform="matrix(-0.9999999999999999,1.224646799147353e-16,-1.224646799147353e-16,-0.9999999999999999,1700,945)" style="opacity: 1;"></path><path  d="M 1400 935 L 1700 935" id="v-895" fill="none" style="cursor: auto; pointer-events: visiblepainted;"></path><g ><g id="v-888"  label-idx="0" cursor="move" transform="matrix(1,0,0,1,1550,935)" style="cursor: default; opacity: 1;"><rect joint-selector="rect" id="v-891" fill="#111111" rx="3" ry="3" pointer-events="none" width="199.59361267089844" height="89.17715835571289" transform="matrix(1,0,0,1,-99.3,-44.6)"></rect><text joint-selector="text" id="v-890" font-size="24px" xml:space="preserve" y="0.8em" fill="#aaaaaa" text-anchor="middle" pointer-events="none" font-family="Open Sans" font-weight="normal" transform="matrix(1,0,0,1,0,-38.9)"><tspan dy="0" >Realiza login</tspan><tspan dy="1.2em" x="0" >usando</tspan><tspan dy="1.2em" x="0" >plataformas de 3º</tspan></text></g><g id="v-889"  label-idx="1" cursor="move" transform="matrix(1,0,0,1,1540,990.2000122070312)" style="cursor: default; opacity: 1;"><rect joint-selector="rect" id="v-893" fill="#ffffff" rx="3" ry="3"  width="0" height="0" transform="matrix(1,0,0,1,0,0)" display="none"></rect><text joint-selector="text" id="v-892" fill="#000000" font-size="14" text-anchor="middle" pointer-events="none"></text></g></g><g  display="none" style="display: none;"></g><g  id="v-898" display="none"><g  id="v-886"><path  end="source" d="M 26 0 L 0 13 L 26 26 z"></path></g><g  id="v-887"><path  end="target" d="M 26 0 L 0 13 L 26 26 z"></path></g></g><g  id="v-897" display="none"><g  id="v-885" transform="translate(1440.0000000000002, 935) "><g  event="remove"><circle r="11"></circle><path transform="scale(.8) translate(-16, -16)" d="M24.778,21.419 19.276,15.917 24.777,10.415 21.949,7.585 16.447,13.087 10.945,7.585 8.117,10.415 13.618,15.917 8.116,21.419 10.946,24.248 16.447,18.746 21.948,24.248z"></path><title>Remove link.</title></g><g  event="link:options"><circle r="11" transform="translate(25)"></circle><path fill="white" transform="scale(.55) translate(29, -16)" d="M31.229,17.736c0.064-0.571,0.104-1.148,0.104-1.736s-0.04-1.166-0.104-1.737l-4.377-1.557c-0.218-0.716-0.504-1.401-0.851-2.05l1.993-4.192c-0.725-0.91-1.549-1.734-2.458-2.459l-4.193,1.994c-0.647-0.347-1.334-0.632-2.049-0.849l-1.558-4.378C17.165,0.708,16.588,0.667,16,0.667s-1.166,0.041-1.737,0.105L12.707,5.15c-0.716,0.217-1.401,0.502-2.05,0.849L6.464,4.005C5.554,4.73,4.73,5.554,4.005,6.464l1.994,4.192c-0.347,0.648-0.632,1.334-0.849,2.05l-4.378,1.557C0.708,14.834,0.667,15.412,0.667,16s0.041,1.165,0.105,1.736l4.378,1.558c0.217,0.715,0.502,1.401,0.849,2.049l-1.994,4.193c0.725,0.909,1.549,1.733,2.459,2.458l4.192-1.993c0.648,0.347,1.334,0.633,2.05,0.851l1.557,4.377c0.571,0.064,1.148,0.104,1.737,0.104c0.588,0,1.165-0.04,1.736-0.104l1.558-4.377c0.715-0.218,1.399-0.504,2.049-0.851l4.193,1.993c0.909-0.725,1.733-1.549,2.458-2.458l-1.993-4.193c0.347-0.647,0.633-1.334,0.851-2.049L31.229,17.736zM16,20.871c-2.69,0-4.872-2.182-4.872-4.871c0-2.69,2.182-4.872,4.872-4.872c2.689,0,4.871,2.182,4.871,4.872C20.871,18.689,18.689,20.871,16,20.871z"></path><title>Link options.</title></g></g></g></g><!--z-index:24--><g   id="j_66" ><path  stroke="#aaaaaa" d="M 1363 785 L 1738 485" id="v-911" stroke-width="2" stroke-dasharray="30 30" fill="none" style="opacity: 1;"></path><path  fill="black" stroke="black" d="M 0 0 0 0" transform="matrix(0.7808686753084833,-0.6246952152225709,0.6246952152225709,0.7808686753084833,1362.5,785)"></path><path  fill="#aaaaaa" stroke="#aaaaaa" d="M 20 0 L 0 10 L 20 20 z" id="v-913" transform="matrix(-0.7808688416748545,0.6246950072646417,-0.6246950072646417,-0.7808688416748545,1743.7469226690826,492.80868658628964)" style="opacity: 1;"></path><path  d="M 1363 785 L 1738 485" id="v-912" fill="none" style="cursor: auto; pointer-events: visiblepainted;"></path><g ><g id="v-905"  label-idx="0" cursor="move" transform="matrix(1,0,0,1,1550.5,635)" style="cursor: default; opacity: 1;"><rect joint-selector="rect" id="v-908" fill="#111111" rx="3" ry="3" pointer-events="none" width="133.99514770507812" height="60.37715148925781" transform="matrix(1,0,0,1,-67,-30.2)"></rect><text joint-selector="text" id="v-907" font-size="24px" xml:space="preserve" y="0.8em" fill="#aaaaaa" text-anchor="middle" pointer-events="none" font-family="Open Sans" font-weight="normal" transform="matrix(1,0,0,1,0,-24.5)"><tspan dy="0" >Pesquisa de</tspan><tspan dy="1.2em" x="0" >dados</tspan></text></g><g id="v-906"  label-idx="1" cursor="move" transform="matrix(1,0,0,1,1540.5,675.7999877929688)" style="cursor: default; opacity: 1;"><rect joint-selector="rect" id="v-910" fill="#ffffff" rx="3" ry="3"  width="0" height="0" transform="matrix(1,0,0,1,0,0)" display="none"></rect><text joint-selector="text" id="v-909" fill="#000000" font-size="14" text-anchor="middle" pointer-events="none"></text></g></g><g  display="none" style="display: none;"></g><g  id="v-915" display="none"><g  id="v-903"><path  end="source" d="M 26 0 L 0 13 L 26 26 z"></path></g><g  id="v-904"><path  end="target" d="M 26 0 L 0 13 L 26 26 z"></path></g></g><g  id="v-914" display="none"><g  id="v-902" transform="translate(1394.2347523777212, 760.012198097823) "><g  event="remove"><circle r="11"></circle><path transform="scale(.8) translate(-16, -16)" d="M24.778,21.419 19.276,15.917 24.777,10.415 21.949,7.585 16.447,13.087 10.945,7.585 8.117,10.415 13.618,15.917 8.116,21.419 10.946,24.248 16.447,18.746 21.948,24.248z"></path><title>Remove link.</title></g><g  event="link:options"><circle r="11" transform="translate(25)"></circle><path fill="white" transform="scale(.55) translate(29, -16)" d="M31.229,17.736c0.064-0.571,0.104-1.148,0.104-1.736s-0.04-1.166-0.104-1.737l-4.377-1.557c-0.218-0.716-0.504-1.401-0.851-2.05l1.993-4.192c-0.725-0.91-1.549-1.734-2.458-2.459l-4.193,1.994c-0.647-0.347-1.334-0.632-2.049-0.849l-1.558-4.378C17.165,0.708,16.588,0.667,16,0.667s-1.166,0.041-1.737,0.105L12.707,5.15c-0.716,0.217-1.401,0.502-2.05,0.849L6.464,4.005C5.554,4.73,4.73,5.554,4.005,6.464l1.994,4.192c-0.347,0.648-0.632,1.334-0.849,2.05l-4.378,1.557C0.708,14.834,0.667,15.412,0.667,16s0.041,1.165,0.105,1.736l4.378,1.558c0.217,0.715,0.502,1.401,0.849,2.049l-1.994,4.193c0.725,0.909,1.549,1.733,2.459,2.458l4.192-1.993c0.648,0.347,1.334,0.633,2.05,0.851l1.557,4.377c0.571,0.064,1.148,0.104,1.737,0.104c0.588,0,1.165-0.04,1.736-0.104l1.558-4.377c0.715-0.218,1.399-0.504,2.049-0.851l4.193,1.993c0.909-0.725,1.733-1.549,2.458-2.458l-1.993-4.193c0.347-0.647,0.633-1.334,0.851-2.049L31.229,17.736zM16,20.871c-2.69,0-4.872-2.182-4.872-4.871c0-2.69,2.182-4.872,4.872-4.872c2.689,0,4.871,2.182,4.871,4.872C20.871,18.689,18.689,20.871,16,20.871z"></path><title>Link options.</title></g></g></g></g><!--z-index:25--><g   id="j_67" ><path  stroke="#aaaaaa" d="M 1400 335 L 1700 335" id="v-928" stroke-width="2" stroke-dasharray="30 30" fill="none" style="opacity: 1;"></path><path  fill="black" stroke="black" d="M 0 0 0 0" transform="matrix(0.9999999999999999,0,0,0.9999999999999999,1400,335)"></path><path  fill="#aaaaaa" stroke="#aaaaaa" d="M 20 0 L 0 10 L 20 20 z" id="v-930" transform="matrix(-0.9999999999999999,1.224646799147353e-16,-1.224646799147353e-16,-0.9999999999999999,1700,345)" style="opacity: 1;"></path><path  d="M 1400 335 L 1700 335" id="v-929" fill="none" style="cursor: auto; pointer-events: visiblepainted;"></path><g ><g id="v-922"  label-idx="0" cursor="move" transform="matrix(1,0,0,1,1550,335)" style="cursor: default; opacity: 1;"><rect joint-selector="rect" id="v-925" fill="#111111" rx="3" ry="3" pointer-events="none" width="187.6710968017578" height="117.97714614868164" transform="matrix(1,0,0,1,-93.8,-59)"></rect><text joint-selector="text" id="v-924" font-size="24px" xml:space="preserve" y="0.8em" fill="#aaaaaa" text-anchor="middle" pointer-events="none" font-family="Open Sans" font-weight="normal" transform="matrix(1,0,0,1,0,-53.3)"><tspan dy="0" >Realiza</tspan><tspan dy="1.2em" x="0" >operações CRUD</tspan><tspan dy="1.2em" x="0" >nos dados de</tspan><tspan dy="1.2em" x="0" >usuários</tspan></text></g><g id="v-923"  label-idx="1" cursor="move" transform="matrix(1,0,0,1,1540,404.6000061035156)" style="cursor: default; opacity: 1;"><rect joint-selector="rect" id="v-927" fill="#ffffff" rx="3" ry="3"  width="0" height="0" transform="matrix(1,0,0,1,0,0)" display="none"></rect><text joint-selector="text" id="v-926" fill="#000000" font-size="14" text-anchor="middle" pointer-events="none"></text></g></g><g  display="none" style="display: none;"></g><g  id="v-932" display="none"><g  id="v-920"><path  end="source" d="M 26 0 L 0 13 L 26 26 z"></path></g><g  id="v-921"><path  end="target" d="M 26 0 L 0 13 L 26 26 z"></path></g></g><g  id="v-931" display="none"><g  id="v-919" transform="translate(1440.0000000000002, 335.00000000000006) "><g  event="remove"><circle r="11"></circle><path transform="scale(.8) translate(-16, -16)" d="M24.778,21.419 19.276,15.917 24.777,10.415 21.949,7.585 16.447,13.087 10.945,7.585 8.117,10.415 13.618,15.917 8.116,21.419 10.946,24.248 16.447,18.746 21.948,24.248z"></path><title>Remove link.</title></g><g  event="link:options"><circle r="11" transform="translate(25)"></circle><path fill="white" transform="scale(.55) translate(29, -16)" d="M31.229,17.736c0.064-0.571,0.104-1.148,0.104-1.736s-0.04-1.166-0.104-1.737l-4.377-1.557c-0.218-0.716-0.504-1.401-0.851-2.05l1.993-4.192c-0.725-0.91-1.549-1.734-2.458-2.459l-4.193,1.994c-0.647-0.347-1.334-0.632-2.049-0.849l-1.558-4.378C17.165,0.708,16.588,0.667,16,0.667s-1.166,0.041-1.737,0.105L12.707,5.15c-0.716,0.217-1.401,0.502-2.05,0.849L6.464,4.005C5.554,4.73,4.73,5.554,4.005,6.464l1.994,4.192c-0.347,0.648-0.632,1.334-0.849,2.05l-4.378,1.557C0.708,14.834,0.667,15.412,0.667,16s0.041,1.165,0.105,1.736l4.378,1.558c0.217,0.715,0.502,1.401,0.849,2.049l-1.994,4.193c0.725,0.909,1.549,1.733,2.459,2.458l4.192-1.993c0.648,0.347,1.334,0.633,2.05,0.851l1.557,4.377c0.571,0.064,1.148,0.104,1.737,0.104c0.588,0,1.165-0.04,1.736-0.104l1.558-4.377c0.715-0.218,1.399-0.504,2.049-0.851l4.193,1.993c0.909-0.725,1.733-1.549,2.458-2.458l-1.993-4.193c0.347-0.647,0.633-1.334,0.851-2.049L31.229,17.736zM16,20.871c-2.69,0-4.872-2.182-4.872-4.871c0-2.69,2.182-4.872,4.872-4.872c2.689,0,4.871,2.182,4.871,4.872C20.871,18.689,18.689,20.871,16,20.871z"></path><title>Link options.</title></g></g></g></g><!--z-index:26--><g   id="j_68" ><path  stroke="#aaaaaa" d="M 650 725 L 950 845" id="v-942" stroke-width="2" stroke-dasharray="30 30" fill="none" style="opacity: 1;"></path><path  fill="black" stroke="black" d="M 0 0 0 0" transform="matrix(0.9284766955435518,0.37139066470837195,-0.37139066470837195,0.9284766955435518,650,725)"></path><path  fill="#aaaaaa" stroke="#aaaaaa" d="M 20 0 L 0 10 L 20 20 z" id="v-944" transform="matrix(-0.9284767079069659,-0.37139063379983417,0.37139063379983417,-0.9284767079069659,946.2860707020088,854.2847451944117)" style="opacity: 1;"></path><path  d="M 650 725 L 950 845" id="v-943" fill="none" style="cursor: auto; pointer-events: visiblepainted;"></path><g ><g id="v-936"  label-idx="0" cursor="move" transform="matrix(1,0,0,1,800,785)" style="cursor: default; opacity: 1;"><rect joint-selector="rect" id="v-939" fill="#111111" rx="3" ry="3" pointer-events="none" width="120.8033676147461" height="31.577150344848633" transform="matrix(1,0,0,1,-60.4,-15.8)"></rect><text joint-selector="text" id="v-938" font-size="24px" xml:space="preserve" y="0.8em" fill="#aaaaaa" text-anchor="middle" pointer-events="none" font-family="Open Sans" font-weight="normal" transform="matrix(1,0,0,1,0,-10.1)"><tspan dy="0" >Fazer login</tspan></text></g><g id="v-937"  label-idx="1" cursor="move" transform="matrix(1,0,0,1,790,811.4000244140625)" style="cursor: default; opacity: 1;"><rect joint-selector="rect" id="v-941" fill="#ffffff" rx="3" ry="3"  width="0" height="0" transform="matrix(1,0,0,1,0,0)" display="none"></rect><text joint-selector="text" id="v-940" fill="#000000" font-size="14" text-anchor="middle" pointer-events="none"></text></g></g><g  display="none" style="display: none;"></g><g  id="v-946" display="none"><g  id="v-934"><path  end="source" d="M 26 0 L 0 13 L 26 26 z"></path></g><g  id="v-935"><path  end="target" d="M 26 0 L 0 13 L 26 26 z"></path></g></g><g  id="v-945" display="none"><g  id="v-933" transform="translate(687.1390676354104, 739.8556270541642) "><g  event="remove"><circle r="11"></circle><path transform="scale(.8) translate(-16, -16)" d="M24.778,21.419 19.276,15.917 24.777,10.415 21.949,7.585 16.447,13.087 10.945,7.585 8.117,10.415 13.618,15.917 8.116,21.419 10.946,24.248 16.447,18.746 21.948,24.248z"></path><title>Remove link.</title></g><g  event="link:options"><circle r="11" transform="translate(25)"></circle><path fill="white" transform="scale(.55) translate(29, -16)" d="M31.229,17.736c0.064-0.571,0.104-1.148,0.104-1.736s-0.04-1.166-0.104-1.737l-4.377-1.557c-0.218-0.716-0.504-1.401-0.851-2.05l1.993-4.192c-0.725-0.91-1.549-1.734-2.458-2.459l-4.193,1.994c-0.647-0.347-1.334-0.632-2.049-0.849l-1.558-4.378C17.165,0.708,16.588,0.667,16,0.667s-1.166,0.041-1.737,0.105L12.707,5.15c-0.716,0.217-1.401,0.502-2.05,0.849L6.464,4.005C5.554,4.73,4.73,5.554,4.005,6.464l1.994,4.192c-0.347,0.648-0.632,1.334-0.849,2.05l-4.378,1.557C0.708,14.834,0.667,15.412,0.667,16s0.041,1.165,0.105,1.736l4.378,1.558c0.217,0.715,0.502,1.401,0.849,2.049l-1.994,4.193c0.725,0.909,1.549,1.733,2.459,2.458l4.192-1.993c0.648,0.347,1.334,0.633,2.05,0.851l1.557,4.377c0.571,0.064,1.148,0.104,1.737,0.104c0.588,0,1.165-0.04,1.736-0.104l1.558-4.377c0.715-0.218,1.399-0.504,2.049-0.851l4.193,1.993c0.909-0.725,1.733-1.549,2.458-2.458l-1.993-4.193c0.347-0.647,0.633-1.334,0.851-2.049L31.229,17.736zM16,20.871c-2.69,0-4.872-2.182-4.872-4.871c0-2.69,2.182-4.872,4.872-4.872c2.689,0,4.871,2.182,4.871,4.872C20.871,18.689,18.689,20.871,16,20.871z"></path><title>Link options.</title></g></g></g></g><!--z-index:27--><g   id="j_69" ><path  stroke="#aaaaaa" d="M 650 545 L 950 425" id="v-959" stroke-width="2" stroke-dasharray="30 30" fill="none" style="opacity: 1;"></path><path  fill="black" stroke="black" d="M 0 0 0 0" transform="matrix(0.9284766089996244,-0.37139088106812523,0.37139088106812523,0.9284766089996244,650,545)"></path><path  fill="#aaaaaa" stroke="#aaaaaa" d="M 20 0 L 0 10 L 20 20 z" id="v-961" transform="matrix(-0.9284767079069659,0.371390633799834,-0.371390633799834,-0.9284767079069659,953.7138833780054,434.28475844614945)" style="opacity: 1;"></path><path  d="M 650 545 L 950 425" id="v-960" fill="none" style="cursor: auto; pointer-events: visiblepainted;"></path><g ><g id="v-953"  label-idx="0" cursor="move" transform="matrix(1,0,0,1,800,485)" style="cursor: default; opacity: 1;"><rect joint-selector="rect" id="v-956" fill="#111111" rx="3" ry="3" pointer-events="none" width="144.87574768066406" height="31.577150344848633" transform="matrix(1,0,0,1,-72.4,-15.8)"></rect><text joint-selector="text" id="v-955" font-size="24px" xml:space="preserve" y="0.8em" fill="#aaaaaa" text-anchor="middle" pointer-events="none" font-family="Open Sans" font-weight="normal" transform="matrix(1,0,0,1,0,-10.1)"><tspan dy="0" >Criar usuario</tspan></text></g><g id="v-954"  label-idx="1" cursor="move" transform="matrix(1,0,0,1,790,511.3999938964844)" style="cursor: default; opacity: 1;"><rect joint-selector="rect" id="v-958" fill="#ffffff" rx="3" ry="3"  width="0" height="0" transform="matrix(1,0,0,1,0,0)" display="none"></rect><text joint-selector="text" id="v-957" fill="#000000" font-size="14" text-anchor="middle" pointer-events="none"></text></g></g><g  display="none" style="display: none;"></g><g  id="v-963" display="none"><g  id="v-951"><path  end="source" d="M 26 0 L 0 13 L 26 26 z"></path></g><g  id="v-952"><path  end="target" d="M 26 0 L 0 13 L 26 26 z"></path></g></g><g  id="v-962" display="none"><g  id="v-950" transform="translate(687.1390676354104, 530.1443729458358) "><g  event="remove"><circle r="11"></circle><path transform="scale(.8) translate(-16, -16)" d="M24.778,21.419 19.276,15.917 24.777,10.415 21.949,7.585 16.447,13.087 10.945,7.585 8.117,10.415 13.618,15.917 8.116,21.419 10.946,24.248 16.447,18.746 21.948,24.248z"></path><title>Remove link.</title></g><g  event="link:options"><circle r="11" transform="translate(25)"></circle><path fill="white" transform="scale(.55) translate(29, -16)" d="M31.229,17.736c0.064-0.571,0.104-1.148,0.104-1.736s-0.04-1.166-0.104-1.737l-4.377-1.557c-0.218-0.716-0.504-1.401-0.851-2.05l1.993-4.192c-0.725-0.91-1.549-1.734-2.458-2.459l-4.193,1.994c-0.647-0.347-1.334-0.632-2.049-0.849l-1.558-4.378C17.165,0.708,16.588,0.667,16,0.667s-1.166,0.041-1.737,0.105L12.707,5.15c-0.716,0.217-1.401,0.502-2.05,0.849L6.464,4.005C5.554,4.73,4.73,5.554,4.005,6.464l1.994,4.192c-0.347,0.648-0.632,1.334-0.849,2.05l-4.378,1.557C0.708,14.834,0.667,15.412,0.667,16s0.041,1.165,0.105,1.736l4.378,1.558c0.217,0.715,0.502,1.401,0.849,2.049l-1.994,4.193c0.725,0.909,1.549,1.733,2.459,2.458l4.192-1.993c0.648,0.347,1.334,0.633,2.05,0.851l1.557,4.377c0.571,0.064,1.148,0.104,1.737,0.104c0.588,0,1.165-0.04,1.736-0.104l1.558-4.377c0.715-0.218,1.399-0.504,2.049-0.851l4.193,1.993c0.909-0.725,1.733-1.549,2.458-2.458l-1.993-4.193c0.347-0.647,0.633-1.334,0.851-2.049L31.229,17.736zM16,20.871c-2.69,0-4.872-2.182-4.872-4.871c0-2.69,2.182-4.872,4.872-4.872c2.689,0,4.871,2.182,4.871,4.872C20.871,18.689,18.689,20.871,16,20.871z"></path><title>Link options.</title></g></g></g></g><!--z-index:28--><!--z-index:29--><!--z-index:30--><!--z-index:31--><!--z-index:32--><!--z-index:33--><!--z-index:34--><!--z-index:35--><!--z-index:36--><!--z-index:37--><!--z-index:38--><!--z-index:39--><!--z-index:40--><!--z-index:41--><!--z-index:42--><!--z-index:43--><!--z-index:44--><!--z-index:45--><!--z-index:46--><!--z-index:47--><!--z-index:48--><!--z-index:49--><!--z-index:50--><!--z-index:51--><!--z-index:52--></g><g ></g><g ></g><g ></g></g></svg>