<svg xmlns="http://www.w3.org/2000/svg" xmlns:xlink="http://www.w3.org/1999/xlink" version="1.1" viewBox="0 0 2300 1350" style="background: #111111"><defs><style>@import url(https://fonts.googleapis.com/css?family=Open+Sans:400,700);</style></defs><defs joint-selector="defs"></defs><g joint-selector="layers"  transform="matrix(1,0,0,1,0,0)"><g ></g><g ><!--z-index:1--><!--z-index:2--><!--z-index:3--><!--z-index:4--><!--z-index:5--><!--z-index:6--><!--z-index:7--><!--z-index:8--><!--z-index:9--><!--z-index:10--><g   id="j_2"  transform="translate(20,1313.6)"><g id="v-5"><text  id="v-6" font-size="22px" xml:space="preserve" y="0.8em" font-weight="normal" text-anchor="start" fill="#777777" pointer-events="none" display="block" font-family="Open Sans"><tspan dy="0"  display="block">Friday, February 28, 2025 at 4:58 AM Brasilia Standard Time</tspan></text></g></g><!--z-index:11--><g   id="j_1"  transform="translate(20,1270.3999999999999)"><g id="v-3"><text  id="v-4" font-size="36px" xml:space="preserve" y="0.8em" font-weight="normal" text-anchor="start" fill="#bbbbbb" pointer-events="none" display="block" font-family="Open Sans"><tspan dy="0"  display="block">[System Context] Cripto Dashboard</tspan></text></g></g><!--z-index:12--><g   id="j_3"  transform="translate(200,165)" style=""><g  id="v-10" style="opacity: 1;"><rect  x="0" y="160" width="400" height="240" rx="70" id="v-12" stroke="#77989b" stroke-width="2" pointer-events="visiblePainted" fill="#84a9ac" style="fill: rgb(132, 169, 172); stroke: rgb(119, 152, 155);"></rect><circle  cx="200" cy="88.88888888888889" r="88.88888888888889" id="v-11" stroke="#77989b" stroke-width="2" pointer-events="visiblePainted" fill="#84a9ac" style="fill: rgb(132, 169, 172); stroke: rgb(119, 152, 155);"></circle><line  x1="80" y1="266.6666666666667" x2="80" y2="400" id="v-18" stroke="#77989b" stroke-width="2" style="stroke: rgb(119, 152, 155);"></line><line  x1="320" y1="266.6666666666667" x2="320" y2="400" id="v-19" stroke="#77989b" stroke-width="2" style="stroke: rgb(119, 152, 155);"></line><text  id="v-13" font-size="34" xml:space="preserve" y="0.8em" font-weight="bold" text-anchor="middle" pointer-events="visible" font-family="Open Sans" fill="#ffffff" transform="matrix(1,0,0,1,200,251.9)" style="fill: rgb(255, 255, 255);"><tspan dy="0" >Usuario Dashboard</tspan></text><text  id="v-14" font-size="17" xml:space="preserve" y="0.8em" text-anchor="middle" font-family="Open Sans" fill="#ffffff" transform="matrix(1,0,0,1,200,292.7)" style="fill: rgb(255, 255, 255);"><tspan dy="0" >[Person]</tspan></text><text  id="v-15" font-size="24" xml:space="preserve" display="none" y="0.8em" text-anchor="middle" font-family="Open Sans" fill="#ffffff" transform="matrix(1,0,0,1,200,313.1)" style="fill: rgb(255, 255, 255);"><tspan dy="0" style="fill-opacity: 0; stroke-opacity: 0;" >-</tspan></text><g  id="v-16" font-weight="normal" text-anchor="middle" color="#ffffff" transform="matrix(1,0,0,1,197.5,368)" style="fill: rgb(255, 255, 255);" display="none"><g ></g><g ></g><g ></g><g ></g></g><image  id="v-17" style="opacity: 1;"></image></g></g><!--z-index:13--><g   id="j_4"  transform="translate(900,215)" style=""><g  id="v-26" style="opacity: 1;"><rect  id="v-27" rx="1" ry="1" stroke="#355f6c" stroke-width="2" pointer-events="visiblePainted" fill="#3b6978" width="450" height="300" style="fill: rgb(59, 105, 120); stroke: rgb(53, 95, 108);"></rect><text  id="v-28" font-size="34" xml:space="preserve" y="0.8em" font-weight="bold" text-anchor="middle" pointer-events="visible" font-family="Open Sans" fill="#ffffff" transform="matrix(1,0,0,1,225,73.7)" style="fill: rgb(255, 255, 255);"><tspan dy="0" >Cripto Dashboard</tspan></text><text  id="v-29" font-size="17" xml:space="preserve" y="0.8em" text-anchor="middle" font-family="Open Sans" fill="#ffffff" transform="matrix(1,0,0,1,225,114.5)" style="fill: rgb(255, 255, 255);"><tspan dy="0" >[Software System]</tspan></text><text  id="v-30" font-size="24" xml:space="preserve" y="0.8em" text-anchor="middle" font-family="Open Sans" fill="#ffffff" transform="matrix(1,0,0,1,225,144.9)" style="fill: rgb(255, 255, 255);"><tspan dy="0" >Aplicação contendo um Dashboard</tspan><tspan dy="1.2em" x="0" >de cripto para uso dos clientes</tspan><tspan dy="1.2em" x="0" >logados</tspan></text><g  id="v-31" color="#ffffff" transform="matrix(1,0,0,1,210,268)" style="fill: rgb(255, 255, 255);" display="none"><g  transform="translate(5 0)"><svg xmlns="http://www.w3.org/2000/svg" width="20" height="20" fill="currentColor" viewBox="0 0 16 16"><path fill-rule="evenodd" d="M6.5 12a5.5 5.5 0 1 0 0-11 5.5 5.5 0 0 0 0 11zM13 6.5a6.5 6.5 0 1 1-13 0 6.5 6.5 0 0 1 13 0z"></path><path d="M10.344 11.742c.03.04.062.078.098.115l3.85 3.85a1 1 0 0 0 1.415-1.414l-3.85-3.85a1.007 1.007 0 0 0-.115-.1 6.538 6.538 0 0 1-1.398 1.4z"></path><path fill-rule="evenodd" d="M6.5 3a.5.5 0 0 1 .5.5V6h2.5a.5.5 0 0 1 0 1H7v2.5a.5.5 0 0 1-1 0V7H3.5a.5.5 0 0 1 0-1H6V3.5a.5.5 0 0 1 .5-.5z"></path></svg></g><g ></g><g ></g><g ></g></g><image  id="v-32" style="opacity: 1;"></image></g></g><!--z-index:14--><g   id="j_5"  transform="translate(1650,815)" style=""><g  id="v-39" style="opacity: 1;"><rect  id="v-40" rx="1" ry="1" stroke="#355f6c" stroke-width="2" pointer-events="visiblePainted" fill="#3b6978" width="450" height="300" style="fill: rgb(59, 105, 120); stroke: rgb(53, 95, 108);"></rect><text  id="v-41" font-size="34" xml:space="preserve" y="0.8em" font-weight="bold" text-anchor="middle" pointer-events="visible" font-family="Open Sans" fill="#ffffff" transform="matrix(1,0,0,1,225,88.1)" style="fill: rgb(255, 255, 255);"><tspan dy="0" >SSO Partner System</tspan></text><text  id="v-42" font-size="17" xml:space="preserve" y="0.8em" text-anchor="middle" font-family="Open Sans" fill="#ffffff" transform="matrix(1,0,0,1,225,128.9)" style="fill: rgb(255, 255, 255);"><tspan dy="0" >[Software System]</tspan></text><text  id="v-43" font-size="24" xml:space="preserve" y="0.8em" text-anchor="middle" font-family="Open Sans" fill="#ffffff" transform="matrix(1,0,0,1,225,159.3)" style="fill: rgb(255, 255, 255);"><tspan dy="0" >Aplicação de 3º para realizar login</tspan><tspan dy="1.2em" x="0" >usando SSO</tspan></text><g  id="v-44" color="#ffffff" transform="matrix(1,0,0,1,222.5,268)" style="fill: rgb(255, 255, 255);" display="none"><g ></g><g ></g><g ></g><g ></g></g><image  id="v-45" style="opacity: 1;"></image></g></g><!--z-index:15--><g   id="j_6"  transform="translate(1650,215)" style=""><g  id="v-49" style="opacity: 1;"><rect  id="v-50" rx="1" ry="1" stroke="#355f6c" stroke-width="2" pointer-events="visiblePainted" fill="#3b6978" width="450" height="300" style="fill: rgb(59, 105, 120); stroke: rgb(53, 95, 108);"></rect><text  id="v-51" font-size="34" xml:space="preserve" y="0.8em" font-weight="bold" text-anchor="middle" pointer-events="visible" font-family="Open Sans" fill="#ffffff" transform="matrix(1,0,0,1,225,88.1)" style="fill: rgb(255, 255, 255);"><tspan dy="0" >CryptoCompare</tspan></text><text  id="v-52" font-size="17" xml:space="preserve" y="0.8em" text-anchor="middle" font-family="Open Sans" fill="#ffffff" transform="matrix(1,0,0,1,225,128.9)" style="fill: rgb(255, 255, 255);"><tspan dy="0" >[Software System]</tspan></text><text  id="v-53" font-size="24" xml:space="preserve" y="0.8em" text-anchor="middle" font-family="Open Sans" fill="#ffffff" transform="matrix(1,0,0,1,225,159.3)" style="fill: rgb(255, 255, 255);"><tspan dy="0" >Aplicação de 3º para ler dados de</tspan><tspan dy="1.2em" x="0" >criptomoedas</tspan></text><g  id="v-54" color="#ffffff" transform="matrix(1,0,0,1,222.5,268)" style="fill: rgb(255, 255, 255);" display="none"><g ></g><g ></g><g ></g><g ></g></g><image  id="v-55" style="opacity: 1;"></image></g></g><!--z-index:16--><g   id="j_7" ><path  stroke="#aaaaaa" d="M 600 365 L 900 365" id="v-68" stroke-width="2" stroke-dasharray="30 30" fill="none" style="opacity: 1;"></path><path  fill="black" stroke="black" d="M 0 0 0 0" transform="matrix(1,0,0,1,600,365)"></path><path  fill="#aaaaaa" stroke="#aaaaaa" d="M 20 0 L 0 10 L 20 20 z" id="v-70" transform="matrix(-1,1.2246467991473532e-16,-1.2246467991473532e-16,-1,900,375)" style="opacity: 1;"></path><path  d="M 600 365 L 900 365" id="v-69" fill="none" style="cursor: auto; pointer-events: visiblepainted;"></path><g ><g id="v-62"  label-idx="0" cursor="move" transform="matrix(1,0,0,1,750,365)" style="cursor: default; opacity: 1;"><rect joint-selector="rect" id="v-65" fill="#111111" rx="3" ry="3" pointer-events="none" width="190.23336791992188" height="89.7790298461914" transform="matrix(1,0,0,1,-95.1,-44.8)"></rect><text joint-selector="text" id="v-64" font-size="24px" xml:space="preserve" y="0.8em" fill="#aaaaaa" text-anchor="middle" pointer-events="none" font-family="Open Sans" font-weight="normal" transform="matrix(1,0,0,1,0,-38.3)"><tspan dy="0" >Usa o dashboard</tspan><tspan dy="1.2em" x="0" >para filtrar as</tspan><tspan dy="1.2em" x="0" >criptomoedas</tspan></text></g><g id="v-63"  label-idx="1" cursor="move" transform="matrix(1,0,0,1,740,420.20001220703125)" style="cursor: default; opacity: 1;"><rect joint-selector="rect" id="v-67" fill="#ffffff" rx="3" ry="3"  width="0" height="0" transform="matrix(1,0,0,1,0,0)" display="none"></rect><text joint-selector="text" id="v-66" fill="#000000" font-size="14" text-anchor="middle" pointer-events="none"></text></g></g><g  display="none" style="display: none;"></g><g  id="v-72" display="none"><g  id="v-60"><path  end="source" d="M 26 0 L 0 13 L 26 26 z"></path></g><g  id="v-61"><path  end="target" d="M 26 0 L 0 13 L 26 26 z"></path></g></g><g  id="v-71" display="none"><g  id="v-59" transform="translate(640, 365.00000000000006) "><g  event="remove"><circle r="11"></circle><path transform="scale(.8) translate(-16, -16)" d="M24.778,21.419 19.276,15.917 24.777,10.415 21.949,7.585 16.447,13.087 10.945,7.585 8.117,10.415 13.618,15.917 8.116,21.419 10.946,24.248 16.447,18.746 21.948,24.248z"></path><title>Remove link.</title></g><g  event="link:options"><circle r="11" transform="translate(25)"></circle><path fill="white" transform="scale(.55) translate(29, -16)" d="M31.229,17.736c0.064-0.571,0.104-1.148,0.104-1.736s-0.04-1.166-0.104-1.737l-4.377-1.557c-0.218-0.716-0.504-1.401-0.851-2.05l1.993-4.192c-0.725-0.91-1.549-1.734-2.458-2.459l-4.193,1.994c-0.647-0.347-1.334-0.632-2.049-0.849l-1.558-4.378C17.165,0.708,16.588,0.667,16,0.667s-1.166,0.041-1.737,0.105L12.707,5.15c-0.716,0.217-1.401,0.502-2.05,0.849L6.464,4.005C5.554,4.73,4.73,5.554,4.005,6.464l1.994,4.192c-0.347,0.648-0.632,1.334-0.849,2.05l-4.378,1.557C0.708,14.834,0.667,15.412,0.667,16s0.041,1.165,0.105,1.736l4.378,1.558c0.217,0.715,0.502,1.401,0.849,2.049l-1.994,4.193c0.725,0.909,1.549,1.733,2.459,2.458l4.192-1.993c0.648,0.347,1.334,0.633,2.05,0.851l1.557,4.377c0.571,0.064,1.148,0.104,1.737,0.104c0.588,0,1.165-0.04,1.736-0.104l1.558-4.377c0.715-0.218,1.399-0.504,2.049-0.851l4.193,1.993c0.909-0.725,1.733-1.549,2.458-2.458l-1.993-4.193c0.347-0.647,0.633-1.334,0.851-2.049L31.229,17.736zM16,20.871c-2.69,0-4.872-2.182-4.872-4.871c0-2.69,2.182-4.872,4.872-4.872c2.689,0,4.871,2.182,4.871,4.872C20.871,18.689,18.689,20.871,16,20.871z"></path><title>Link options.</title></g></g></g></g><!--z-index:17--><g   id="j_8" ><path  stroke="#aaaaaa" d="M 1350 455 L 1491 511 C 1497 513.6666666666666 1503 513.6666666666666 1509 511 L 1650 455" id="v-85" stroke-width="2" stroke-dasharray="30 30" fill="none" style="opacity: 1;"></path><path  fill="black" stroke="black" d="M 0 0 0 0" transform="matrix(0.9284766955435519,0.371390664708372,-0.371390664708372,0.9284766955435519,1350,455)"></path><path  fill="#aaaaaa" stroke="#aaaaaa" d="M 20 0 L 0 10 L 20 20 z" id="v-87" transform="matrix(-0.928476707906966,0.37139063379983406,-0.37139063379983406,-0.928476707906966,1653.7138833780054,464.28475844614945)" style="opacity: 1;"></path><path  d="M 1350 455 L 1491 511 C 1497 513.6666666666666 1503 513.6666666666666 1509 511 L 1650 455" id="v-86" fill="none" style="cursor: auto; pointer-events: visiblepainted;"></path><g ><g id="v-79"  label-idx="0" cursor="move" transform="matrix(1,0,0,1,1500,513)" style="cursor: default; opacity: 1;"><rect joint-selector="rect" id="v-82" fill="#111111" rx="3" ry="3" pointer-events="none" width="185.60446166992188" height="89.7790298461914" transform="matrix(1,0,0,1,-92.8,-44.8)"></rect><text joint-selector="text" id="v-81" font-size="24px" xml:space="preserve" y="0.8em" fill="#aaaaaa" text-anchor="middle" pointer-events="none" font-family="Open Sans" font-weight="normal" transform="matrix(1,0,0,1,0,-38.3)"><tspan dy="0" >Obtém dados</tspan><tspan dy="1.2em" x="0" >para alimentar o</tspan><tspan dy="1.2em" x="0" >sistema</tspan></text></g><g id="v-80"  label-idx="1" cursor="move" transform="matrix(1,0,0,1,1490,568.2000122070312)" style="cursor: default; opacity: 1;"><rect joint-selector="rect" id="v-84" fill="#ffffff" rx="3" ry="3"  width="0" height="0" transform="matrix(1,0,0,1,0,0)" display="none"></rect><text joint-selector="text" id="v-83" fill="#000000" font-size="14" text-anchor="middle" pointer-events="none"></text></g></g><g  display="none" style="display: none;"><g  transform="translate(1500, 515)" id="v-129"><circle  idx="0" r="10"></circle><path  idx="0" d="M16,5.333c-7.732,0-14,4.701-14,10.5c0,1.982,0.741,3.833,2.016,5.414L2,25.667l5.613-1.441c2.339,1.317,5.237,2.107,8.387,2.107c7.732,0,14-4.701,14-10.5C30,10.034,23.732,5.333,16,5.333z" transform="translate(5, -33)"></path><path  idx="0" transform="scale(.8) translate(9.5, -37)" d="M24.778,21.419 19.276,15.917 24.777,10.415 21.949,7.585 16.447,13.087 10.945,7.585 8.117,10.415 13.618,15.917 8.116,21.419 10.946,24.248 16.447,18.746 21.948,24.248z"><title>Remove vertex.</title></path></g></g><g  id="v-89" display="none"><g  id="v-77"><path  end="source" d="M 26 0 L 0 13 L 26 26 z"></path></g><g  id="v-78"><path  end="target" d="M 26 0 L 0 13 L 26 26 z"></path></g></g><g  id="v-88" display="none"><g  id="v-76" transform="translate(1387.1753225311058, 469.76466710455264) "><g  event="remove"><circle r="11"></circle><path transform="scale(.8) translate(-16, -16)" d="M24.778,21.419 19.276,15.917 24.777,10.415 21.949,7.585 16.447,13.087 10.945,7.585 8.117,10.415 13.618,15.917 8.116,21.419 10.946,24.248 16.447,18.746 21.948,24.248z"></path><title>Remove link.</title></g><g  event="link:options"><circle r="11" transform="translate(25)"></circle><path fill="white" transform="scale(.55) translate(29, -16)" d="M31.229,17.736c0.064-0.571,0.104-1.148,0.104-1.736s-0.04-1.166-0.104-1.737l-4.377-1.557c-0.218-0.716-0.504-1.401-0.851-2.05l1.993-4.192c-0.725-0.91-1.549-1.734-2.458-2.459l-4.193,1.994c-0.647-0.347-1.334-0.632-2.049-0.849l-1.558-4.378C17.165,0.708,16.588,0.667,16,0.667s-1.166,0.041-1.737,0.105L12.707,5.15c-0.716,0.217-1.401,0.502-2.05,0.849L6.464,4.005C5.554,4.73,4.73,5.554,4.005,6.464l1.994,4.192c-0.347,0.648-0.632,1.334-0.849,2.05l-4.378,1.557C0.708,14.834,0.667,15.412,0.667,16s0.041,1.165,0.105,1.736l4.378,1.558c0.217,0.715,0.502,1.401,0.849,2.049l-1.994,4.193c0.725,0.909,1.549,1.733,2.459,2.458l4.192-1.993c0.648,0.347,1.334,0.633,2.05,0.851l1.557,4.377c0.571,0.064,1.148,0.104,1.737,0.104c0.588,0,1.165-0.04,1.736-0.104l1.558-4.377c0.715-0.218,1.399-0.504,2.049-0.851l4.193,1.993c0.909-0.725,1.733-1.549,2.458-2.458l-1.993-4.193c0.347-0.647,0.633-1.334,0.851-2.049L31.229,17.736zM16,20.871c-2.69,0-4.872-2.182-4.872-4.871c0-2.69,2.182-4.872,4.872-4.872c2.689,0,4.871,2.182,4.871,4.872C20.871,18.689,18.689,20.871,16,20.871z"></path><title>Link options.</title></g></g></g></g><!--z-index:18--><g   id="j_9" ><path  stroke="#aaaaaa" d="M 1650 275 L 1509 219 C 1503 216.33333333333331 1497 216.33333333333331 1491 219 L 1350 275" id="v-105" stroke-width="2" stroke-dasharray="30 30" fill="none" style="opacity: 1;"></path><path  fill="black" stroke="black" d="M 0 0 0 0" transform="matrix(-0.928476707906966,-0.3713906337998342,0.3713906337998342,-0.928476707906966,1650,275)"></path><path  fill="#aaaaaa" stroke="#aaaaaa" d="M 20 0 L 0 10 L 20 20 z" id="v-107" transform="matrix(0.9284766089996245,-0.3713908810681253,0.3713908810681253,0.9284766089996245,1346.286115138385,265.7152450156069)" style="opacity: 1;"></path><path  d="M 1650 275 L 1509 219 C 1503 216.33333333333331 1497 216.33333333333331 1491 219 L 1350 275" id="v-106" fill="none" style="cursor: auto; pointer-events: visiblepainted;"></path><g ><g id="v-96"  label-idx="0" cursor="move" transform="matrix(1,0,0,1,1500,217)" style="cursor: default; opacity: 1;"><rect joint-selector="rect" id="v-100" fill="#111111" rx="3" ry="3" pointer-events="none" width="161.5487823486328" height="89.7790298461914" transform="matrix(1,0,0,1,-80.8,-44.8)"></rect><text joint-selector="text" id="v-99" font-size="24px" xml:space="preserve" y="0.8em" fill="#aaaaaa" text-anchor="middle" pointer-events="none" font-family="Open Sans" font-weight="normal" transform="matrix(1,0,0,1,0,-38.3)"><tspan dy="0" >Envia dados</tspan><tspan dy="1.2em" x="0" >atualizados de</tspan><tspan dy="1.2em" x="0" >criptomoedas</tspan></text></g><g id="v-97"  label-idx="1" cursor="move" transform="matrix(1,0,0,1,1500,272.20001220703125)" style="cursor: default; opacity: 1;"><rect joint-selector="rect" id="v-102" fill="#111111" rx="3" ry="3" pointer-events="none" width="98.95051574707031" height="22.52531909942627" transform="matrix(1,0,0,1,-49.5,-11.3)"></rect><text joint-selector="text" id="v-101" font-size="17px" xml:space="preserve" y="0.8em" fill="#aaaaaa" text-anchor="middle" pointer-events="none" font-family="Open Sans" font-weight="normal" transform="matrix(1,0,0,1,0,-7.2)"><tspan dy="0" >[WebSocket]</tspan></text></g><g id="v-98"  label-idx="2" cursor="move" transform="matrix(1,0,0,1,1490,280.6000061035156)" style="cursor: default; opacity: 1;"><rect joint-selector="rect" id="v-104" fill="#ffffff" rx="3" ry="3"  width="0" height="0" transform="matrix(1,0,0,1,0,0)" display="none"></rect><text joint-selector="text" id="v-103" fill="#000000" font-size="14" text-anchor="middle" pointer-events="none"></text></g></g><g  display="none" style="display: none;"><g  transform="translate(1500, 215)" id="v-130"><circle  idx="0" r="10"></circle><path  idx="0" d="M16,5.333c-7.732,0-14,4.701-14,10.5c0,1.982,0.741,3.833,2.016,5.414L2,25.667l5.613-1.441c2.339,1.317,5.237,2.107,8.387,2.107c7.732,0,14-4.701,14-10.5C30,10.034,23.732,5.333,16,5.333z" transform="translate(5, -33)"></path><path  idx="0" transform="scale(.8) translate(9.5, -37)" d="M24.778,21.419 19.276,15.917 24.777,10.415 21.949,7.585 16.447,13.087 10.945,7.585 8.117,10.415 13.618,15.917 8.116,21.419 10.946,24.248 16.447,18.746 21.948,24.248z"><title>Remove vertex.</title></path></g></g><g  id="v-109" display="none"><g  id="v-94"><path  end="source" d="M 26 0 L 0 13 L 26 26 z"></path></g><g  id="v-95"><path  end="target" d="M 26 0 L 0 13 L 26 26 z"></path></g></g><g  id="v-108" display="none"><g  id="v-93" transform="translate(1612.8246774688942, 260.23533289544736) "><g  event="remove"><circle r="11"></circle><path transform="scale(.8) translate(-16, -16)" d="M24.778,21.419 19.276,15.917 24.777,10.415 21.949,7.585 16.447,13.087 10.945,7.585 8.117,10.415 13.618,15.917 8.116,21.419 10.946,24.248 16.447,18.746 21.948,24.248z"></path><title>Remove link.</title></g><g  event="link:options"><circle r="11" transform="translate(25)"></circle><path fill="white" transform="scale(.55) translate(29, -16)" d="M31.229,17.736c0.064-0.571,0.104-1.148,0.104-1.736s-0.04-1.166-0.104-1.737l-4.377-1.557c-0.218-0.716-0.504-1.401-0.851-2.05l1.993-4.192c-0.725-0.91-1.549-1.734-2.458-2.459l-4.193,1.994c-0.647-0.347-1.334-0.632-2.049-0.849l-1.558-4.378C17.165,0.708,16.588,0.667,16,0.667s-1.166,0.041-1.737,0.105L12.707,5.15c-0.716,0.217-1.401,0.502-2.05,0.849L6.464,4.005C5.554,4.73,4.73,5.554,4.005,6.464l1.994,4.192c-0.347,0.648-0.632,1.334-0.849,2.05l-4.378,1.557C0.708,14.834,0.667,15.412,0.667,16s0.041,1.165,0.105,1.736l4.378,1.558c0.217,0.715,0.502,1.401,0.849,2.049l-1.994,4.193c0.725,0.909,1.549,1.733,2.459,2.458l4.192-1.993c0.648,0.347,1.334,0.633,2.05,0.851l1.557,4.377c0.571,0.064,1.148,0.104,1.737,0.104c0.588,0,1.165-0.04,1.736-0.104l1.558-4.377c0.715-0.218,1.399-0.504,2.049-0.851l4.193,1.993c0.909-0.725,1.733-1.549,2.458-2.458l-1.993-4.193c0.347-0.647,0.633-1.334,0.851-2.049L31.229,17.736zM16,20.871c-2.69,0-4.872-2.182-4.872-4.871c0-2.69,2.182-4.872,4.872-4.872c2.689,0,4.871,2.182,4.871,4.872C20.871,18.689,18.689,20.871,16,20.871z"></path><title>Link options.</title></g></g></g></g><!--z-index:19--><g   id="j_10" ><path  stroke="#aaaaaa" d="M 1313 515 L 1688 815" id="v-122" stroke-width="2" stroke-dasharray="30 30" fill="none" style="opacity: 1;"></path><path  fill="black" stroke="black" d="M 0 0 0 0" transform="matrix(0.7808688000832672,0.624695059254128,-0.624695059254128,0.7808688000832672,1312.5,515)"></path><path  fill="#aaaaaa" stroke="#aaaaaa" d="M 20 0 L 0 10 L 20 20 z" id="v-124" transform="matrix(-0.7808688416748548,-0.6246950072646416,0.6246950072646416,-0.7808688416748548,1681.2530225237897,822.8086902472074)" style="opacity: 1;"></path><path  d="M 1313 515 L 1688 815" id="v-123" fill="none" style="cursor: auto; pointer-events: visiblepainted;"></path><g ><g id="v-116"  label-idx="0" cursor="move" transform="matrix(1,0,0,1,1500.5,665)" style="cursor: default; opacity: 1;"><rect joint-selector="rect" id="v-119" fill="#111111" rx="3" ry="3" pointer-events="none" width="199.20309448242188" height="89.7790298461914" transform="matrix(1,0,0,1,-99.3,-44.8)"></rect><text joint-selector="text" id="v-118" font-size="24px" xml:space="preserve" y="0.8em" fill="#aaaaaa" text-anchor="middle" pointer-events="none" font-family="Open Sans" font-weight="normal" transform="matrix(1,0,0,1,0,-38.3)"><tspan dy="0" >Realiza login</tspan><tspan dy="1.2em" x="0" >usando</tspan><tspan dy="1.2em" x="0" >plataformas de 3º</tspan></text></g><g id="v-117"  label-idx="1" cursor="move" transform="matrix(1,0,0,1,1490.5,720.2000122070312)" style="cursor: default; opacity: 1;"><rect joint-selector="rect" id="v-121" fill="#ffffff" rx="3" ry="3"  width="0" height="0" transform="matrix(1,0,0,1,0,0)" display="none"></rect><text joint-selector="text" id="v-120" fill="#000000" font-size="14" text-anchor="middle" pointer-events="none"></text></g></g><g  display="none" style="display: none;"></g><g  id="v-126" display="none"><g  id="v-114"><path  end="source" d="M 26 0 L 0 13 L 26 26 z"></path></g><g  id="v-115"><path  end="target" d="M 26 0 L 0 13 L 26 26 z"></path></g></g><g  id="v-125" display="none"><g  id="v-113" transform="translate(1344.2347523777214, 539.987801902177) "><g  event="remove"><circle r="11"></circle><path transform="scale(.8) translate(-16, -16)" d="M24.778,21.419 19.276,15.917 24.777,10.415 21.949,7.585 16.447,13.087 10.945,7.585 8.117,10.415 13.618,15.917 8.116,21.419 10.946,24.248 16.447,18.746 21.948,24.248z"></path><title>Remove link.</title></g><g  event="link:options"><circle r="11" transform="translate(25)"></circle><path fill="white" transform="scale(.55) translate(29, -16)" d="M31.229,17.736c0.064-0.571,0.104-1.148,0.104-1.736s-0.04-1.166-0.104-1.737l-4.377-1.557c-0.218-0.716-0.504-1.401-0.851-2.05l1.993-4.192c-0.725-0.91-1.549-1.734-2.458-2.459l-4.193,1.994c-0.647-0.347-1.334-0.632-2.049-0.849l-1.558-4.378C17.165,0.708,16.588,0.667,16,0.667s-1.166,0.041-1.737,0.105L12.707,5.15c-0.716,0.217-1.401,0.502-2.05,0.849L6.464,4.005C5.554,4.73,4.73,5.554,4.005,6.464l1.994,4.192c-0.347,0.648-0.632,1.334-0.849,2.05l-4.378,1.557C0.708,14.834,0.667,15.412,0.667,16s0.041,1.165,0.105,1.736l4.378,1.558c0.217,0.715,0.502,1.401,0.849,2.049l-1.994,4.193c0.725,0.909,1.549,1.733,2.459,2.458l4.192-1.993c0.648,0.347,1.334,0.633,2.05,0.851l1.557,4.377c0.571,0.064,1.148,0.104,1.737,0.104c0.588,0,1.165-0.04,1.736-0.104l1.558-4.377c0.715-0.218,1.399-0.504,2.049-0.851l4.193,1.993c0.909-0.725,1.733-1.549,2.458-2.458l-1.993-4.193c0.347-0.647,0.633-1.334,0.851-2.049L31.229,17.736zM16,20.871c-2.69,0-4.872-2.182-4.872-4.871c0-2.69,2.182-4.872,4.872-4.872c2.689,0,4.871,2.182,4.871,4.872C20.871,18.689,18.689,20.871,16,20.871z"></path><title>Link options.</title></g></g></g></g><!--z-index:20--></g><g ></g><g ></g><g ></g></g></svg>